<?xml version="1.0" encoding="utf-8"?>
<svg xmlns="http://www.w3.org/2000/svg" viewBox="306.145 216.598 169.74 61.913" width="169.74px" height="61.913px">
  <path d="M 329.329 244.342 L 316.753 244.342 L 314.737 250.294 L 306.145 250.294 L 318.337 216.598 L 327.841 216.598 L 340.033 250.294 L 331.345 250.294 L 329.329 244.342 Z M 327.217 238.006 L 323.041 225.67 L 318.913 238.006 L 327.217 238.006 Z M 353.736 243.958 L 364.488 243.958 L 364.488 250.294 L 345.528 250.294 L 345.528 216.598 L 353.736 216.598 L 353.736 243.958 Z M 388.464 216.598 L 388.464 223.174 L 379.536 223.174 L 379.536 250.294 L 371.328 250.294 L 371.328 223.174 L 362.4 223.174 L 362.4 216.598 L 388.464 216.598 Z" style="fill: rgb(26, 26, 24);" transform="matrix(1.0000000000000002, 0, 0, 1, 0, 0)"/>
  <path d="M 431.696 231.038 L 431.696 237.854 L 393.776 237.854 L 393.776 231.038 L 431.696 231.038 Z" style="fill: #b84a30; stroke: #b84a30; stroke-width: 1;" transform="matrix(1.0000000000000002, 0, 0, 1, 0, 0)"/>
  <path d="M 328.429 278.511 C 327.003 278.511 325.747 278.263 324.662 277.767 C 323.577 277.271 322.725 276.579 322.105 275.69 C 321.485 274.801 321.154 273.809 321.113 272.714 L 323.407 272.714 C 323.51 273.768 323.975 274.693 324.802 275.488 C 325.628 276.284 326.837 276.682 328.429 276.682 C 329.896 276.682 331.058 276.305 331.916 275.55 C 332.774 274.796 333.203 273.84 333.203 272.683 C 333.203 271.753 332.965 271.004 332.49 270.435 C 332.014 269.867 331.425 269.443 330.723 269.164 C 330.02 268.885 329.049 268.581 327.809 268.25 C 326.362 267.857 325.215 267.475 324.368 267.103 C 323.52 266.731 322.797 266.152 322.198 265.367 C 321.598 264.582 321.299 263.517 321.299 262.174 C 321.299 261.058 321.588 260.061 322.167 259.182 C 322.745 258.304 323.562 257.617 324.616 257.121 C 325.67 256.625 326.879 256.377 328.243 256.377 C 330.247 256.377 331.864 256.868 333.094 257.849 C 334.324 258.831 335.032 260.097 335.218 261.647 L 332.862 261.647 C 332.717 260.758 332.231 259.968 331.405 259.275 C 330.578 258.583 329.462 258.237 328.057 258.237 C 326.755 258.237 325.67 258.583 324.802 259.275 C 323.934 259.968 323.5 260.913 323.5 262.112 C 323.5 263.021 323.737 263.755 324.213 264.313 C 324.688 264.871 325.282 265.295 325.995 265.584 C 326.708 265.873 327.674 266.183 328.894 266.514 C 330.299 266.907 331.436 267.294 332.304 267.676 C 333.172 268.059 333.905 268.643 334.505 269.428 C 335.104 270.213 335.404 271.267 335.404 272.59 C 335.404 273.603 335.135 274.564 334.598 275.473 C 334.06 276.382 333.265 277.116 332.211 277.674 C 331.157 278.232 329.896 278.511 328.429 278.511 Z M 344.458 258.392 L 344.458 266.483 L 352.673 266.483 L 352.673 268.281 L 344.458 268.281 L 344.458 276.496 L 353.603 276.496 L 353.603 278.294 L 342.288 278.294 L 342.288 256.594 L 353.603 256.594 L 353.603 258.392 L 344.458 258.392 Z M 367.153 278.511 C 365.727 278.511 364.471 278.263 363.387 277.767 C 362.301 277.271 361.449 276.579 360.829 275.69 C 360.209 274.801 359.878 273.809 359.837 272.714 L 362.131 272.714 C 362.234 273.768 362.699 274.693 363.526 275.488 C 364.352 276.284 365.561 276.682 367.153 276.682 C 368.62 276.682 369.783 276.305 370.641 275.55 C 371.498 274.796 371.927 273.84 371.927 272.683 C 371.927 271.753 371.689 271.004 371.214 270.435 C 370.738 269.867 370.149 269.443 369.447 269.164 C 368.744 268.885 367.773 268.581 366.533 268.25 C 365.086 267.857 363.939 267.475 363.092 267.103 C 362.244 266.731 361.521 266.152 360.922 265.367 C 360.322 264.582 360.023 263.517 360.023 262.174 C 360.023 261.058 360.312 260.061 360.891 259.182 C 361.469 258.304 362.286 257.617 363.34 257.121 C 364.394 256.625 365.603 256.377 366.967 256.377 C 368.971 256.377 370.589 256.868 371.819 257.849 C 373.048 258.831 373.756 260.097 373.942 261.647 L 371.586 261.647 C 371.441 260.758 370.955 259.968 370.129 259.275 C 369.302 258.583 368.186 258.237 366.781 258.237 C 365.479 258.237 364.394 258.583 363.526 259.275 C 362.658 259.968 362.224 260.913 362.224 262.112 C 362.224 263.021 362.461 263.755 362.937 264.313 C 363.412 264.871 364.006 265.295 364.72 265.584 C 365.432 265.873 366.398 266.183 367.618 266.514 C 369.023 266.907 370.16 267.294 371.028 267.676 C 371.896 268.059 372.629 268.643 373.229 269.428 C 373.828 270.213 374.128 271.267 374.128 272.59 C 374.128 273.603 373.859 274.564 373.322 275.473 C 372.784 276.382 371.989 277.116 370.935 277.674 C 369.881 278.232 368.62 278.511 367.153 278.511 Z M 387.586 278.511 C 386.16 278.511 384.904 278.263 383.819 277.767 C 382.734 277.271 381.882 276.579 381.262 275.69 C 380.642 274.801 380.311 273.809 380.27 272.714 L 382.564 272.714 C 382.667 273.768 383.132 274.693 383.959 275.488 C 384.785 276.284 385.994 276.682 387.586 276.682 C 389.053 276.682 390.215 276.305 391.073 275.55 C 391.931 274.796 392.36 273.84 392.36 272.683 C 392.36 271.753 392.122 271.004 391.647 270.435 C 391.171 269.867 390.582 269.443 389.88 269.164 C 389.177 268.885 388.206 268.581 386.966 268.25 C 385.519 267.857 384.372 267.475 383.525 267.103 C 382.677 266.731 381.954 266.152 381.355 265.367 C 380.755 264.582 380.456 263.517 380.456 262.174 C 380.456 261.058 380.745 260.061 381.324 259.182 C 381.902 258.304 382.719 257.617 383.773 257.121 C 384.827 256.625 386.036 256.377 387.4 256.377 C 389.404 256.377 391.021 256.868 392.251 257.849 C 393.481 258.831 394.189 260.097 394.375 261.647 L 392.019 261.647 C 391.874 260.758 391.388 259.968 390.562 259.275 C 389.735 258.583 388.619 258.237 387.214 258.237 C 385.912 258.237 384.827 258.583 383.959 259.275 C 383.091 259.968 382.657 260.913 382.657 262.112 C 382.657 263.021 382.894 263.755 383.37 264.313 C 383.845 264.871 384.439 265.295 385.152 265.584 C 385.865 265.873 386.831 266.183 388.051 266.514 C 389.456 266.907 390.593 267.294 391.461 267.676 C 392.329 268.059 393.062 268.643 393.662 269.428 C 394.261 270.213 394.561 271.267 394.561 272.59 C 394.561 273.603 394.292 274.564 393.755 275.473 C 393.217 276.382 392.422 277.116 391.368 277.674 C 390.314 278.232 389.053 278.511 387.586 278.511 Z M 403.615 256.625 L 403.615 278.294 L 401.445 278.294 L 401.445 256.625 L 403.615 256.625 Z M 420.977 278.511 C 418.972 278.511 417.153 278.041 415.521 277.1 C 413.888 276.16 412.602 274.848 411.662 273.163 C 410.721 271.479 410.251 269.573 410.251 267.444 C 410.251 265.315 410.721 263.409 411.662 261.724 C 412.602 260.04 413.888 258.728 415.521 257.787 C 417.153 256.847 418.972 256.377 420.977 256.377 C 423.002 256.377 424.831 256.847 426.464 257.787 C 428.096 258.728 429.378 260.04 430.308 261.724 C 431.238 263.409 431.703 265.315 431.703 267.444 C 431.703 269.573 431.238 271.479 430.308 273.163 C 429.378 274.848 428.096 276.16 426.464 277.1 C 424.831 278.041 423.002 278.511 420.977 278.511 Z M 420.977 276.62 C 422.589 276.62 424.035 276.248 425.317 275.504 C 426.598 274.76 427.611 273.69 428.355 272.295 C 429.099 270.9 429.471 269.283 429.471 267.444 C 429.471 265.605 429.099 263.993 428.355 262.608 C 427.611 261.223 426.598 260.159 425.317 259.415 C 424.035 258.671 422.589 258.299 420.977 258.299 C 419.365 258.299 417.918 258.671 416.637 259.415 C 415.355 260.159 414.343 261.223 413.599 262.608 C 412.855 263.993 412.483 265.605 412.483 267.444 C 412.483 269.283 412.855 270.9 413.599 272.295 C 414.343 273.69 415.355 274.76 416.637 275.504 C 417.918 276.248 419.365 276.62 420.977 276.62 Z M 454.708 278.294 L 452.538 278.294 L 440.541 260.066 L 440.541 278.294 L 438.371 278.294 L 438.371 256.625 L 440.541 256.625 L 452.538 274.822 L 452.538 256.625 L 454.708 256.625 L 454.708 278.294 Z M 468.91 278.511 C 467.484 278.511 466.228 278.263 465.143 277.767 C 464.058 277.271 463.206 276.579 462.586 275.69 C 461.966 274.801 461.635 273.809 461.594 272.714 L 463.888 272.714 C 463.991 273.768 464.456 274.693 465.283 275.488 C 466.109 276.284 467.318 276.682 468.91 276.682 C 470.377 276.682 471.539 276.305 472.397 275.55 C 473.255 274.796 473.684 273.84 473.684 272.683 C 473.684 271.753 473.446 271.004 472.971 270.435 C 472.495 269.867 471.906 269.443 471.204 269.164 C 470.501 268.885 469.53 268.581 468.29 268.25 C 466.843 267.857 465.696 267.475 464.849 267.103 C 464.001 266.731 463.278 266.152 462.679 265.367 C 462.079 264.582 461.78 263.517 461.78 262.174 C 461.78 261.058 462.069 260.061 462.648 259.182 C 463.226 258.304 464.043 257.617 465.097 257.121 C 466.151 256.625 467.36 256.377 468.724 256.377 C 470.728 256.377 472.345 256.868 473.575 257.849 C 474.805 258.831 475.513 260.097 475.699 261.647 L 473.343 261.647 C 473.198 260.758 472.712 259.968 471.886 259.275 C 471.059 258.583 469.943 258.237 468.538 258.237 C 467.236 258.237 466.151 258.583 465.283 259.275 C 464.415 259.968 463.981 260.913 463.981 262.112 C 463.981 263.021 464.218 263.755 464.694 264.313 C 465.169 264.871 465.763 265.295 466.476 265.584 C 467.189 265.873 468.155 266.183 469.375 266.514 C 470.78 266.907 471.917 267.294 472.785 267.676 C 473.653 268.059 474.386 268.643 474.986 269.428 C 475.585 270.213 475.885 271.267 475.885 272.59 C 475.885 273.603 475.616 274.564 475.079 275.473 C 474.541 276.382 473.746 277.116 472.692 277.674 C 471.638 278.232 470.377 278.511 468.91 278.511 Z" style="fill: rgb(26, 26, 24);" transform="matrix(1.0000000000000002, 0, 0, 1, 0, 0)"/>
</svg>
